<svg id="visual" viewBox="0 0 960 300" width="960" height="300" xmlns="http://www.w3.org/2000/svg" xmlns:xlink="http://www.w3.org/1999/xlink" version="1.1"><rect x="0" y="0" width="960" height="300" fill="#1e5a59"></rect><path d="M0 175L17.8 173C35.7 171 71.3 167 106.8 152C142.3 137 177.7 111 213.2 99.7C248.7 88.3 284.3 91.7 320 104C355.7 116.3 391.3 137.7 426.8 151.3C462.3 165 497.7 171 533.2 172.3C568.7 173.7 604.3 170.3 640 166.8C675.7 163.3 711.3 159.7 746.8 149.5C782.3 139.3 817.7 122.7 853.2 113.3C888.7 104 924.3 102 942.2 101L960 100L960 0L942.2 0C924.3 0 888.7 0 853.2 0C817.7 0 782.3 0 746.8 0C711.3 0 675.7 0 640 0C604.3 0 568.7 0 533.2 0C497.7 0 462.3 0 426.8 0C391.3 0 355.7 0 320 0C284.3 0 248.7 0 213.2 0C177.7 0 142.3 0 106.8 0C71.3 0 35.7 0 17.8 0L0 0Z" fill="#1c4b57"></path><path d="M0 55L17.8 52.8C35.7 50.7 71.3 46.3 106.8 50.2C142.3 54 177.7 66 213.2 67.5C248.7 69 284.3 60 320 62C355.7 64 391.3 77 426.8 81.3C462.3 85.7 497.7 81.3 533.2 74.3C568.7 67.3 604.3 57.7 640 61.8C675.7 66 711.3 84 746.8 95.5C782.3 107 817.7 112 853.2 100.3C888.7 88.7 924.3 60.3 942.2 46.2L960 32L960 0L942.2 0C924.3 0 888.7 0 853.2 0C817.7 0 782.3 0 746.8 0C711.3 0 675.7 0 640 0C604.3 0 568.7 0 533.2 0C497.7 0 462.3 0 426.8 0C391.3 0 355.7 0 320 0C284.3 0 248.7 0 213.2 0C177.7 0 142.3 0 106.8 0C71.3 0 35.7 0 17.8 0L0 0Z" fill="#213c4c"></path></svg>