<svg id="visual" viewBox="0 0 960 300" width="960" height="300" xmlns="http://www.w3.org/2000/svg" xmlns:xlink="http://www.w3.org/1999/xlink" version="1.1"><rect x="0" y="0" width="960" height="300" fill="#1b7865"></rect><path d="M0 121L17.8 127.3C35.7 133.7 71.3 146.3 106.8 146.7C142.3 147 177.7 135 213.2 127C248.7 119 284.3 115 320 118.3C355.7 121.7 391.3 132.3 426.8 131.8C462.3 131.3 497.7 119.7 533.2 120.8C568.7 122 604.3 136 640 150.8C675.7 165.7 711.3 181.3 746.8 183.7C782.3 186 817.7 175 853.2 170.8C888.7 166.7 924.3 169.3 942.2 170.7L960 172L960 0L942.2 0C924.3 0 888.7 0 853.2 0C817.7 0 782.3 0 746.8 0C711.3 0 675.7 0 640 0C604.3 0 568.7 0 533.2 0C497.7 0 462.3 0 426.8 0C391.3 0 355.7 0 320 0C284.3 0 248.7 0 213.2 0C177.7 0 142.3 0 106.8 0C71.3 0 35.7 0 17.8 0L0 0Z" fill="#4b8f8c"></path><path d="M0 74L17.8 79.5C35.7 85 71.3 96 106.8 103C142.3 110 177.7 113 213.2 115.5C248.7 118 284.3 120 320 113.3C355.7 106.7 391.3 91.3 426.8 81.2C462.3 71 497.7 66 533.2 71.5C568.7 77 604.3 93 640 103.2C675.7 113.3 711.3 117.7 746.8 110.3C782.3 103 817.7 84 853.2 75.2C888.7 66.3 924.3 67.7 942.2 68.3L960 69L960 0L942.2 0C924.3 0 888.7 0 853.2 0C817.7 0 782.3 0 746.8 0C711.3 0 675.7 0 640 0C604.3 0 568.7 0 533.2 0C497.7 0 462.3 0 426.8 0C391.3 0 355.7 0 320 0C284.3 0 248.7 0 213.2 0C177.7 0 142.3 0 106.8 0C71.3 0 35.7 0 17.8 0L0 0Z" fill="#357472"></path><path d="M0 85L17.8 81.2C35.7 77.3 71.3 69.7 106.8 65.8C142.3 62 177.7 62 213.2 60.5C248.7 59 284.3 56 320 47.3C355.7 38.7 391.3 24.3 426.8 23.5C462.3 22.7 497.7 35.3 533.2 49.2C568.7 63 604.3 78 640 74.7C675.7 71.3 711.3 49.7 746.8 45.3C782.3 41 817.7 54 853.2 53.2C888.7 52.3 924.3 37.7 942.2 30.3L960 23L960 0L942.2 0C924.3 0 888.7 0 853.2 0C817.7 0 782.3 0 746.8 0C711.3 0 675.7 0 640 0C604.3 0 568.7 0 533.2 0C497.7 0 462.3 0 426.8 0C391.3 0 355.7 0 320 0C284.3 0 248.7 0 213.2 0C177.7 0 142.3 0 106.8 0C71.3 0 35.7 0 17.8 0L0 0Z" fill="#1e5a59"></path></svg>