<svg id="visual" viewBox="0 0 960 300" width="960" height="300" xmlns="http://www.w3.org/2000/svg" xmlns:xlink="http://www.w3.org/1999/xlink" version="1.1"><rect x="0" y="0" width="960" height="300" fill="#8bd0c2"></rect><path d="M0 153L16 173.7C32 194.3 64 235.7 96 248.2C128 260.7 160 244.3 192 227.8C224 211.3 256 194.7 288 198C320 201.3 352 224.7 384 226.7C416 228.7 448 209.3 480 190.3C512 171.3 544 152.7 576 159.3C608 166 640 198 672 200.3C704 202.7 736 175.3 768 168.2C800 161 832 174 864 185.5C896 197 928 207 944 212L960 217L960 0L944 0C928 0 896 0 864 0C832 0 800 0 768 0C736 0 704 0 672 0C640 0 608 0 576 0C544 0 512 0 480 0C448 0 416 0 384 0C352 0 320 0 288 0C256 0 224 0 192 0C160 0 128 0 96 0C64 0 32 0 16 0L0 0Z" fill="#005744"></path><path d="M0 162L16 151.7C32 141.3 64 120.7 96 111.8C128 103 160 106 192 109C224 112 256 115 288 128.5C320 142 352 166 384 163.7C416 161.3 448 132.7 480 131.8C512 131 544 158 576 156.2C608 154.3 640 123.7 672 123.3C704 123 736 153 768 168C800 183 832 183 864 182.7C896 182.3 928 181.7 944 181.3L960 181L960 0L944 0C928 0 896 0 864 0C832 0 800 0 768 0C736 0 704 0 672 0C640 0 608 0 576 0C544 0 512 0 480 0C448 0 416 0 384 0C352 0 320 0 288 0C256 0 224 0 192 0C160 0 128 0 96 0C64 0 32 0 16 0L0 0Z" fill="#116d58"></path><path d="M0 93L16 103.7C32 114.3 64 135.7 96 140.5C128 145.3 160 133.7 192 135.5C224 137.3 256 152.7 288 159.8C320 167 352 166 384 160.8C416 155.7 448 146.3 480 138.3C512 130.3 544 123.7 576 113.5C608 103.3 640 89.7 672 92.7C704 95.7 736 115.3 768 114C800 112.7 832 90.3 864 92C896 93.7 928 119.3 944 132.2L960 145L960 0L944 0C928 0 896 0 864 0C832 0 800 0 768 0C736 0 704 0 672 0C640 0 608 0 576 0C544 0 512 0 480 0C448 0 416 0 384 0C352 0 320 0 288 0C256 0 224 0 192 0C160 0 128 0 96 0C64 0 32 0 16 0L0 0Z" fill="#21846e"></path><path d="M0 83L16 79C32 75 64 67 96 65C128 63 160 67 192 68.3C224 69.7 256 68.3 288 69.5C320 70.7 352 74.3 384 83.8C416 93.3 448 108.7 480 111.5C512 114.3 544 104.7 576 102.3C608 100 640 105 672 95.7C704 86.3 736 62.7 768 63.3C800 64 832 89 864 90.8C896 92.7 928 71.3 944 60.7L960 50L960 0L944 0C928 0 896 0 864 0C832 0 800 0 768 0C736 0 704 0 672 0C640 0 608 0 576 0C544 0 512 0 480 0C448 0 416 0 384 0C352 0 320 0 288 0C256 0 224 0 192 0C160 0 128 0 96 0C64 0 32 0 16 0L0 0Z" fill="#309c85"></path><path d="M0 49L16 46.5C32 44 64 39 96 43.5C128 48 160 62 192 65.5C224 69 256 62 288 59.3C320 56.7 352 58.3 384 58C416 57.7 448 55.3 480 48.8C512 42.3 544 31.7 576 36.5C608 41.3 640 61.7 672 62.7C704 63.7 736 45.3 768 34C800 22.7 832 18.3 864 18C896 17.7 928 21.3 944 23.2L960 25L960 0L944 0C928 0 896 0 864 0C832 0 800 0 768 0C736 0 704 0 672 0C640 0 608 0 576 0C544 0 512 0 480 0C448 0 416 0 384 0C352 0 320 0 288 0C256 0 224 0 192 0C160 0 128 0 96 0C64 0 32 0 16 0L0 0Z" fill="#3eb59d"></path></svg>