<svg id="visual" viewBox="0 0 960 300" width="960" height="300" xmlns="http://www.w3.org/2000/svg" xmlns:xlink="http://www.w3.org/1999/xlink" version="1.1"><rect x="0" y="0" width="960" height="300" fill="#3eb59d"></rect><path d="M0 138L17.8 146.2C35.7 154.3 71.3 170.7 106.8 169.3C142.3 168 177.7 149 213.2 146.7C248.7 144.3 284.3 158.7 320 157.3C355.7 156 391.3 139 426.8 137.8C462.3 136.7 497.7 151.3 533.2 160C568.7 168.7 604.3 171.3 640 175.3C675.7 179.3 711.3 184.7 746.8 184.7C782.3 184.7 817.7 179.3 853.2 173.2C888.7 167 924.3 160 942.2 156.5L960 153L960 0L942.2 0C924.3 0 888.7 0 853.2 0C817.7 0 782.3 0 746.8 0C711.3 0 675.7 0 640 0C604.3 0 568.7 0 533.2 0C497.7 0 462.3 0 426.8 0C391.3 0 355.7 0 320 0C284.3 0 248.7 0 213.2 0C177.7 0 142.3 0 106.8 0C71.3 0 35.7 0 17.8 0L0 0Z" fill="#002415"></path><path d="M0 105L17.8 112.2C35.7 119.3 71.3 133.7 106.8 136.5C142.3 139.3 177.7 130.7 213.2 127.3C248.7 124 284.3 126 320 126.7C355.7 127.3 391.3 126.7 426.8 123.7C462.3 120.7 497.7 115.3 533.2 113.3C568.7 111.3 604.3 112.7 640 117.2C675.7 121.7 711.3 129.3 746.8 126.3C782.3 123.3 817.7 109.7 853.2 109.2C888.7 108.7 924.3 121.3 942.2 127.7L960 134L960 0L942.2 0C924.3 0 888.7 0 853.2 0C817.7 0 782.3 0 746.8 0C711.3 0 675.7 0 640 0C604.3 0 568.7 0 533.2 0C497.7 0 462.3 0 426.8 0C391.3 0 355.7 0 320 0C284.3 0 248.7 0 213.2 0C177.7 0 142.3 0 106.8 0C71.3 0 35.7 0 17.8 0L0 0Z" fill="#073e2d"></path><path d="M0 87L17.8 84.5C35.7 82 71.3 77 106.8 70.2C142.3 63.3 177.7 54.7 213.2 55C248.7 55.3 284.3 64.7 320 76.3C355.7 88 391.3 102 426.8 104.8C462.3 107.7 497.7 99.3 533.2 92.8C568.7 86.3 604.3 81.7 640 79.5C675.7 77.3 711.3 77.7 746.8 82.2C782.3 86.7 817.7 95.3 853.2 96C888.7 96.7 924.3 89.3 942.2 85.7L960 82L960 0L942.2 0C924.3 0 888.7 0 853.2 0C817.7 0 782.3 0 746.8 0C711.3 0 675.7 0 640 0C604.3 0 568.7 0 533.2 0C497.7 0 462.3 0 426.8 0C391.3 0 355.7 0 320 0C284.3 0 248.7 0 213.2 0C177.7 0 142.3 0 106.8 0C71.3 0 35.7 0 17.8 0L0 0Z" fill="#125a48"></path><path d="M0 21L17.8 20.8C35.7 20.7 71.3 20.3 106.8 29C142.3 37.7 177.7 55.3 213.2 63C248.7 70.7 284.3 68.3 320 61C355.7 53.7 391.3 41.3 426.8 40.3C462.3 39.3 497.7 49.7 533.2 51.7C568.7 53.7 604.3 47.3 640 40.3C675.7 33.3 711.3 25.7 746.8 25.3C782.3 25 817.7 32 853.2 31.8C888.7 31.7 924.3 24.3 942.2 20.7L960 17L960 0L942.2 0C924.3 0 888.7 0 853.2 0C817.7 0 782.3 0 746.8 0C711.3 0 675.7 0 640 0C604.3 0 568.7 0 533.2 0C497.7 0 462.3 0 426.8 0C391.3 0 355.7 0 320 0C284.3 0 248.7 0 213.2 0C177.7 0 142.3 0 106.8 0C71.3 0 35.7 0 17.8 0L0 0Z" fill="#1b7865"></path></svg>